<svg xmlns="http://www.w3.org/2000/svg" viewBox="0 0 1080 321.7" xmlns:v="https://vecta.io/nano"><path d="M251.08 112.65h17.59L288.18 144l19.5-31.37h17.6v74.19h-16.22V138.4l-20.88 31.7h-.43l-20.67-31.38v48.12h-16zm89.99 0h56v14.52h-39.78v15h35v14.52h-35v15.58h40.28v14.52h-56.5zm66.58 0h15.06l34.76 45.68v-45.68h16.12v74.19H459.7l-35.93-47.16v47.16h-16.12zM505 127.7h-22.63v-15h61.48v15h-22.58v59.14H505zm45 22.3v-.21c0-21.1 16.64-38.38 39.54-38.38s39.32 17.07 39.32 38.16v.22c0 21.09-16.64 38.37-39.54 38.37S550 171.05 550 150zm61.8 0v-.21c0-12.73-9.33-23.32-22.48-23.32S567 136.81 567 149.53v.22c0 12.71 9.33 23.31 22.48 23.31s22.28-10.38 22.28-23.06zm27.93-37.35h33.91c9.44 0 16.75 2.65 21.63 7.52 4.13 4.14 6.36 10 6.36 17v.21c0 12-6.47 19.51-15.9 23l18.12 26.5h-19.08l-15.9-23.74h-12.82v23.74h-16.32zm32.85 36c8 0 12.51-4.24 12.51-10.49V138c0-7-4.87-10.6-12.82-10.6h-16.22v21.3zm98.27-36.53h15.06l31.79 74.72h-17.06l-6.78-16.64h-31.38l-6.78 16.64h-16.65zM788 155.79l-9.86-24.07-9.86 24.07z" fill="#00005a"/><path d="M251.28 234.18v-.06a10.85 10.85 0 0 1 11.13-11.05 11 11 0 0 1 8.43 3.3l-3 3.44a7.92 7.92 0 0 0-5.47-2.41c-3.6 0-6.19 3-6.19 6.65v.07c0 3.66 2.53 6.71 6.19 6.71 2.44 0 3.94-1 5.62-2.5l3 3a10.92 10.92 0 0 1-8.76 3.81 10.77 10.77 0 0 1-10.95-10.96zm36.17-10.74h4.69v17.08h10.65v4.28h-15.34zm31 12.2v-12.2h4.7v12.08c0 3.48 1.74 5.28 4.61 5.28s4.61-1.74 4.61-5.13v-12.23h4.69v12.05c0 6.47-3.63 9.64-9.36 9.64s-9.25-3.2-9.25-9.49zm41.16-7.87h-6.5v-4.33h17.69v4.33h-6.49v17h-4.7zm33.15 0h-6.5v-4.33H404v4.33h-6.5v17h-4.7zm27.4-4.33h16.11v4.18h-11.44V232h10.07v4.18h-10.07v4.48h11.6v4.19h-16.27zm33.71 0h9.77a8.52 8.52 0 0 1 6.22 2.16 6.71 6.71 0 0 1 1.83 4.88v.07a6.64 6.64 0 0 1-4.57 6.62l5.21 7.63h-5.49l-4.58-6.8h-3.69v6.84h-4.7zm9.46 10.37c2.29 0 3.6-1.22 3.6-3v-.06c0-2-1.4-3-3.69-3h-4.67v6.13zm52.49-6.04h-6.5v-4.33H527v4.33h-6.5v17h-4.7zm26.06 6.41v-.06a11.36 11.36 0 0 1 22.7-.07v.07a11.36 11.36 0 0 1-22.7.06zm17.79 0v-.06a6.49 6.49 0 0 0-6.47-6.72 6.39 6.39 0 0 0-6.41 6.65v.07a6.49 6.49 0 0 0 6.47 6.71 6.39 6.39 0 0 0 6.41-6.65zm43.06 0v-.06a10.86 10.86 0 0 1 11.14-11.05 11 11 0 0 1 8.42 3.3l-3 3.44a7.9 7.9 0 0 0-5.46-2.41c-3.6 0-6.19 3-6.19 6.65v.07c0 3.66 2.53 6.71 6.19 6.71 2.44 0 3.94-1 5.61-2.5l3 3a11.26 11.26 0 0 1-19.71-7.17zm36.17-10.74h4.7v17.08h10.65v4.28H638.9zm39.78-.16H683l9.15 21.52h-4.91l-2-4.8h-9l-2 4.8h-4.79zm4.94 12.57l-2.84-6.92-2.78 6.92zm24.62-12.41H718a8.54 8.54 0 0 1 6.23 2.16 6.71 6.71 0 0 1 1.83 4.88v.07a6.64 6.64 0 0 1-4.58 6.62l5.22 7.63h-5.49l-4.58-6.8h-3.69v6.84h-4.7zm9.46 10.37c2.29 0 3.6-1.22 3.6-3v-.06c0-2-1.41-3-3.69-3h-4.67v6.13zm25.78-10.37h4.7v21.36h-4.7zm27.46 4.33h-6.5v-4.33h17.7v4.33h-6.5v17h-4.7zm34.53 8.6l-8.21-12.93h5.49l5.1 8.57 5.19-8.57h5.34l-8.21 12.84v8.52h-4.7z" fill="#4057e3"/><path d="M721.37 101.82h-5.51c-.72 0-1-.21-1.11-1l-2.64-18.68c-.17-1.14.13-1.44 1.51-1.49A55.23 55.23 0 0 0 724 79.38a18.54 18.54 0 0 0 6.23-2.5c3.57-2.39 5.06-5.94 4.14-9.93-.83-3.64-3.66-6-7.9-6.58-7.56-1.08-14.06 1.27-19.77 6.14a14.76 14.76 0 0 0-1 .9c-1.52 1.36-1.51 1.35-2.84-.12l-9.45-10.34c-.59-.63-.75-1 0-1.66 8-8.08 17.46-12.62 29-12.7 6.21 0 12.26.64 17.9 3.38 8 3.9 12.39 10.38 13.39 19.17a26.45 26.45 0 0 1-2 14.66c-2.82 5.9-7.61 9.58-13.6 11.86a49.12 49.12 0 0 1-7.67 2.24c-.79.16-1.22.39-1.33 1.3-.22 1.81-.68 3.6-.93 5.41-.13 1-.55 1.29-1.53 1.24-1.84-.09-3.56-.03-5.27-.03zm-.46 8.58h8.64c1 0 1.24.31 1.14 1.21l-1 10.19q-1 10-2.14 20l-1.94 18.27c-.07.75-.38.85-1 .85-2.34 0-4.68-.08-7 0-1 0-1.37-.27-1.46-1.25l-1.59-15.17-2.66-25-.76-8.09c0-.81.21-1.07 1-1.06l8.77.05zM712 178v-7.63c0-.84.27-1 1.07-1q7.83 0 15.65 0c.86 0 1 .3 1 1.08v15.39c0 .9-.28 1.1-1.13 1.09h-15.52c-.91 0-1.11-.29-1.1-1.14L712 178z" fill="#e60c56"/></svg>